G04 EAGLE Gerber RS-274X export*
G75*
%MOMM*%
%FSLAX34Y34*%
%LPD*%
%INSoldermask Bottom*%
%IPPOS*%
%AMOC8*
5,1,8,0,0,1.08239X$1,22.5*%
G01*
G04 Define Apertures*
%ADD10C,0.853200*%
%ADD11C,0.705600*%
%ADD12C,0.655600*%
D10*
X1543778Y470700D03*
X1543778Y528500D03*
D11*
X-80000Y879000D03*
X-41000Y931000D03*
X-19000Y442000D03*
X1169200Y409300D03*
X1151000Y406000D03*
X1379000Y338000D03*
X1518000Y552000D03*
X4000Y449000D03*
X814000Y146000D03*
X1054000Y381164D03*
X545000Y231000D03*
X686000Y144000D03*
X449250Y951225D03*
X1046000Y306000D03*
X341000Y995000D03*
X412627Y956373D03*
X1252000Y100000D03*
X209975Y515500D03*
X689750Y122000D03*
X407775Y259250D03*
X254725Y460750D03*
X861000Y206000D03*
X216518Y497500D03*
X1136500Y347500D03*
X823000Y258000D03*
X701000Y123000D03*
X729333Y128333D03*
X707084Y130000D03*
X266000Y178000D03*
X827700Y162300D03*
X590000Y175000D03*
X1047623Y236377D03*
X1387000Y314000D03*
X1549000Y518000D03*
D12*
X617500Y390000D03*
X1522500Y487500D03*
X602500Y210000D03*
X1552500Y505000D03*
X632500Y210000D03*
X817500Y217500D03*
X795000Y220000D03*
X1395000Y287500D03*
X1220000Y287500D03*
X1024779Y234779D03*
X1417500Y350000D03*
X1372500Y305000D03*
X1345000Y370000D03*
X140000Y362500D03*
X1407500Y367500D03*
X1522500Y495000D03*
X1327500Y387500D03*
X157500Y367500D03*
X605000Y232500D03*
X385000Y215000D03*
X330000Y530000D03*
X262500Y530000D03*
X-20000Y415000D03*
X1105000Y315000D03*
X1005000Y357500D03*
X685000Y572500D03*
X470000Y155000D03*
X570000Y827500D03*
X340000Y597500D03*
X35000Y377500D03*
X322500Y377500D03*
X-37500Y865000D03*
X1192500Y540000D03*
X718769Y123166D03*
X222500Y537500D03*
X-15000Y552500D03*
X167500Y1022500D03*
X-37500Y890000D03*
X-17500Y887500D03*
X760000Y892500D03*
X747500Y905000D03*
X715000Y105000D03*
X1015000Y162500D03*
X1312500Y417500D03*
X47500Y402500D03*
X330000Y487500D03*
X-37500Y842500D03*
X345000Y592500D03*
X515000Y117500D03*
X1115000Y378374D03*
X842500Y180000D03*
X15000Y372500D03*
X645000Y262500D03*
X1192500Y347500D03*
X1355000Y507500D03*
X1210000Y425000D03*
X1144294Y350000D03*
X1195000Y332500D03*
X1095000Y290000D03*
X760000Y145000D03*
X630000Y225000D03*
X680000Y232500D03*
X1377500Y167500D03*
X712975Y122330D03*
X650000Y242500D03*
X1170000Y250000D03*
X673500Y256500D03*
X567129Y222129D03*
X811762Y249914D03*
X1167500Y190000D03*
X810000Y192500D03*
X725000Y307500D03*
X742500Y290000D03*
X772500Y105000D03*
X552500Y115000D03*
X-37500Y795000D03*
X362500Y587500D03*
X765000Y105000D03*
X552500Y122500D03*
X271320Y171180D03*
X1170000Y282500D03*
X525000Y257500D03*
X545000Y372500D03*
X1120654Y380914D03*
X617500Y382500D03*
X1100000Y382500D03*
X712500Y142500D03*
X302500Y160000D03*
X830000Y175000D03*
X1087500Y455000D03*
X545000Y792500D03*
X107500Y470000D03*
X255000Y492500D03*
X735000Y290000D03*
X230000Y357500D03*
X555000Y357500D03*
X332500Y895000D03*
X612500Y945000D03*
X332500Y882500D03*
X650000Y940000D03*
X122500Y577500D03*
X755000Y577500D03*
X647500Y202500D03*
X302500Y205000D03*
X800000Y212500D03*
X140000Y477500D03*
X255000Y435000D03*
X1260000Y202500D03*
X372500Y210000D03*
X602500Y247500D03*
X267500Y340000D03*
X1430000Y152500D03*
X1362500Y85000D03*
X832500Y450000D03*
X790000Y457500D03*
X105000Y532500D03*
X1222500Y450000D03*
X1470000Y162500D03*
X1375000Y67500D03*
X670000Y237500D03*
X725000Y247500D03*
X250000Y345000D03*
X1255000Y245000D03*
X735000Y145000D03*
X725000Y155000D03*
X60000Y577500D03*
X675000Y582500D03*
X342500Y975000D03*
X162500Y1037500D03*
X-15000Y407500D03*
X60000Y405000D03*
X720000Y492500D03*
X1215000Y535000D03*
X855000Y535000D03*
X72500Y402500D03*
X727500Y492500D03*
X10000Y402500D03*
X117500Y205000D03*
X710000Y80000D03*
X35000Y367500D03*
X222500Y400000D03*
X87500Y402500D03*
X222500Y572500D03*
X157500Y557500D03*
X662500Y125000D03*
X724077Y135217D03*
X670000Y137500D03*
X770000Y162500D03*
X675000Y165000D03*
X765000Y175000D03*
X680000Y105000D03*
X860000Y160000D03*
X705000Y85000D03*
X1385000Y167500D03*
X715000Y192500D03*
X1390000Y267500D03*
X795000Y67500D03*
X1285000Y62500D03*
X545000Y862500D03*
X790000Y627500D03*
X1005000Y412500D03*
X1280000Y395000D03*
X617500Y282500D03*
X682500Y335000D03*
X620000Y200000D03*
X810000Y185000D03*
D11*
X-75456Y887834D03*
X-41000Y942374D03*
X-25747Y447747D03*
X1152270Y397166D03*
X753118Y166544D03*
X1238086Y100000D03*
M02*
