G04 EAGLE Gerber RS-274X export*
G75*
%MOMM*%
%FSLAX34Y34*%
%LPD*%
%INSolderpaste Top*%
%IPPOS*%
%AMOC8*
5,1,8,0,0,1.08239X$1,22.5*%
G01*
G04 Define Apertures*
%ADD10R,1.400000X1.050000*%
%ADD11R,0.900000X0.700000*%
%ADD12R,1.400000X1.400000*%
%ADD13R,0.700000X0.900000*%
%ADD14R,2.200000X2.000000*%
%ADD15R,0.800000X0.800000*%
%ADD16R,1.200000X0.600000*%
%ADD17R,0.940000X0.970000*%
%ADD18R,0.970000X0.940000*%
%ADD19R,0.900000X0.800000*%
%ADD20R,1.150000X0.800000*%
%ADD21R,0.800000X0.900000*%
%ADD22R,0.900000X0.600000*%
%ADD23R,1.150000X0.300000*%
%ADD24R,2.000000X2.180000*%
%ADD25R,0.300000X0.800000*%
%ADD26R,0.400000X0.800000*%
%ADD27R,2.000000X1.200000*%
%ADD28R,1.350000X0.600000*%
%ADD29R,1.200000X1.800000*%
%ADD30R,1.900000X1.400000*%
%ADD31R,1.500000X0.700000*%
%ADD32R,0.127000X0.127000*%
%ADD33R,1.200000X0.550000*%
%ADD34R,1.500000X3.600000*%
%ADD35R,0.500000X1.050000*%
%ADD36C,0.125000*%
%ADD37R,1.168400X1.600200*%
%ADD38R,1.010000X1.460000*%
%ADD39C,0.110000*%
%ADD40R,0.900000X1.500000*%
%ADD41C,0.147500*%
%ADD42R,0.560000X0.820000*%
%ADD43C,0.067500*%
D10*
X400500Y1041828D03*
X365500Y1041828D03*
X365500Y1026828D03*
X400500Y1026828D03*
D11*
X264400Y397900D03*
X264400Y410900D03*
X798900Y152900D03*
X798900Y165900D03*
D12*
X868400Y450000D03*
X868400Y472000D03*
D11*
X589800Y154100D03*
X589800Y167100D03*
D13*
X1038300Y227800D03*
X1051300Y227800D03*
D11*
X1366200Y-5700D03*
X1366200Y7300D03*
X293200Y207900D03*
X293200Y220900D03*
X613400Y157100D03*
X613400Y170100D03*
D14*
X1153000Y244900D03*
X1153000Y274900D03*
D11*
X1352100Y-5500D03*
X1352100Y7500D03*
X1417300Y399300D03*
X1417300Y412300D03*
X230900Y208700D03*
X230900Y221700D03*
X848900Y256300D03*
X848900Y269300D03*
X342000Y207900D03*
X342000Y220900D03*
X761400Y152900D03*
X761400Y165900D03*
X836800Y153400D03*
X836800Y166400D03*
D13*
X8100Y939400D03*
X21100Y939400D03*
D10*
X548500Y1041828D03*
X513500Y1041828D03*
X513500Y1026828D03*
X548500Y1026828D03*
D15*
X1208800Y269500D03*
X1208800Y284500D03*
D11*
X1313700Y366500D03*
X1313700Y379500D03*
D16*
X1370800Y388800D03*
X1370800Y379300D03*
X1370800Y369800D03*
X1395800Y369800D03*
X1395800Y379300D03*
X1395800Y388800D03*
D17*
X1167200Y420300D03*
X1167200Y435300D03*
X1105000Y353300D03*
X1105000Y368300D03*
D18*
X1014300Y404800D03*
X1029300Y404800D03*
D19*
X1049900Y256915D03*
X1049900Y277915D03*
D20*
X656400Y341800D03*
X691400Y341800D03*
X779700Y230100D03*
X814700Y230100D03*
X778100Y267600D03*
X813100Y267600D03*
D18*
X1063300Y407800D03*
X1078300Y407800D03*
D21*
X778078Y604900D03*
X799078Y604900D03*
D17*
X1023600Y258300D03*
X1023600Y273300D03*
D18*
X1064900Y382800D03*
X1079900Y382800D03*
D11*
X850500Y152571D03*
X850500Y165571D03*
X814100Y153500D03*
X814100Y166500D03*
X778900Y152415D03*
X778900Y165415D03*
X742000Y153571D03*
X742000Y166571D03*
X1337800Y-5900D03*
X1337800Y7100D03*
X1379500Y-5500D03*
X1379500Y7500D03*
D13*
X701400Y167600D03*
X714400Y167600D03*
X1394500Y315600D03*
X1407500Y315600D03*
X1392600Y333600D03*
X1405600Y333600D03*
D11*
X869200Y152600D03*
X869200Y165600D03*
D22*
X373000Y975500D03*
X373000Y966000D03*
X373000Y956500D03*
X401000Y956500D03*
X401000Y975500D03*
X1087400Y281000D03*
X1087400Y271500D03*
X1087400Y262000D03*
X1115400Y262000D03*
X1115400Y281000D03*
D23*
X1533028Y466100D03*
X1533028Y474100D03*
X1533028Y487100D03*
X1533028Y497100D03*
X1533028Y502100D03*
X1533028Y512100D03*
X1533028Y525100D03*
X1533028Y533100D03*
X1533028Y530100D03*
X1533028Y522100D03*
X1533028Y517100D03*
X1533028Y507100D03*
X1533028Y492100D03*
X1533028Y482100D03*
X1533028Y477100D03*
X1533028Y469100D03*
D24*
X1578078Y448500D03*
X1578078Y550700D03*
X1538778Y448500D03*
X1538778Y550700D03*
D25*
X778700Y113000D03*
X773700Y113000D03*
X768700Y113000D03*
X763700Y113000D03*
X758700Y113000D03*
X753700Y113000D03*
X748700Y113000D03*
X743700Y113000D03*
X738700Y113000D03*
X733700Y113000D03*
X728700Y113000D03*
X723700Y113000D03*
X718700Y113000D03*
X713700Y113000D03*
X708700Y113000D03*
X703700Y113000D03*
X698700Y113000D03*
X693700Y113000D03*
X688700Y113000D03*
X683700Y113000D03*
X678700Y113000D03*
X673700Y113000D03*
X668700Y113000D03*
X663700Y113000D03*
D26*
X788700Y88000D03*
X653700Y88000D03*
D27*
X1573078Y120200D03*
X1573078Y176200D03*
D28*
X1536328Y133200D03*
X1536328Y143200D03*
X1536328Y153200D03*
X1536328Y163200D03*
D29*
X54922Y803300D03*
X54922Y860300D03*
D30*
X-87578Y773300D03*
X-77578Y904800D03*
D31*
X-49078Y821300D03*
X-45078Y832300D03*
X-49078Y843300D03*
X-51078Y854300D03*
X-49078Y865300D03*
X-51078Y876300D03*
X-49078Y887300D03*
X-49078Y898300D03*
D29*
X54922Y831800D03*
X54922Y888800D03*
D32*
X654440Y278000D03*
X700160Y278000D03*
D33*
X1132001Y389000D03*
X1132001Y398500D03*
X1132001Y408000D03*
X1105999Y408000D03*
X1105999Y389000D03*
D34*
X1361300Y287400D03*
X1406300Y287400D03*
D21*
X1186600Y334600D03*
X1205600Y334600D03*
X1196100Y355600D03*
D19*
X611800Y243100D03*
X611800Y224100D03*
X632800Y233600D03*
D35*
X536900Y132100D03*
X549900Y132100D03*
X543400Y153100D03*
D11*
X100500Y310300D03*
X100500Y323300D03*
X-26700Y945400D03*
X-26700Y958400D03*
D13*
X518000Y101100D03*
X531000Y101100D03*
D11*
X840600Y449300D03*
X840600Y462300D03*
X848100Y542000D03*
X848100Y555000D03*
D13*
X782500Y436000D03*
X795500Y436000D03*
D11*
X249900Y397800D03*
X249900Y410800D03*
D13*
X645200Y212800D03*
X658200Y212800D03*
X785300Y587000D03*
X798300Y587000D03*
X577800Y133915D03*
X590800Y133915D03*
D11*
X567000Y231300D03*
X567000Y244300D03*
X548100Y66071D03*
X548100Y79071D03*
X231600Y160900D03*
X231600Y173900D03*
X-52500Y945400D03*
X-52500Y958400D03*
X422400Y958700D03*
X422400Y971700D03*
X571600Y1030578D03*
X571600Y1043578D03*
X420800Y1030578D03*
X420800Y1043578D03*
X170000Y1030578D03*
X170000Y1043578D03*
X293200Y160700D03*
X293200Y173700D03*
D10*
X150500Y1041828D03*
X115500Y1041828D03*
X115500Y1026828D03*
X150500Y1026828D03*
D11*
X340600Y1030578D03*
X340600Y1043578D03*
X591000Y229500D03*
X591000Y242500D03*
X487200Y1029500D03*
X487200Y1042500D03*
X341600Y159900D03*
X341600Y172900D03*
X93400Y1030500D03*
X93400Y1043500D03*
D36*
X1346975Y79035D02*
X1346975Y70125D01*
X1343225Y70125D01*
X1343225Y79035D01*
X1346975Y79035D01*
X1346975Y71312D02*
X1343225Y71312D01*
X1343225Y72499D02*
X1346975Y72499D01*
X1346975Y73686D02*
X1343225Y73686D01*
X1343225Y74873D02*
X1346975Y74873D01*
X1346975Y76060D02*
X1343225Y76060D01*
X1343225Y77247D02*
X1346975Y77247D01*
X1346975Y78434D02*
X1343225Y78434D01*
X1354975Y79035D02*
X1354975Y70125D01*
X1351225Y70125D01*
X1351225Y79035D01*
X1354975Y79035D01*
X1354975Y71312D02*
X1351225Y71312D01*
X1351225Y72499D02*
X1354975Y72499D01*
X1354975Y73686D02*
X1351225Y73686D01*
X1351225Y74873D02*
X1354975Y74873D01*
X1354975Y76060D02*
X1351225Y76060D01*
X1351225Y77247D02*
X1354975Y77247D01*
X1354975Y78434D02*
X1351225Y78434D01*
X1362975Y79035D02*
X1362975Y70125D01*
X1359225Y70125D01*
X1359225Y79035D01*
X1362975Y79035D01*
X1362975Y71312D02*
X1359225Y71312D01*
X1359225Y72499D02*
X1362975Y72499D01*
X1362975Y73686D02*
X1359225Y73686D01*
X1359225Y74873D02*
X1362975Y74873D01*
X1362975Y76060D02*
X1359225Y76060D01*
X1359225Y77247D02*
X1362975Y77247D01*
X1362975Y78434D02*
X1359225Y78434D01*
X1370975Y79035D02*
X1370975Y70125D01*
X1367225Y70125D01*
X1367225Y79035D01*
X1370975Y79035D01*
X1370975Y71312D02*
X1367225Y71312D01*
X1367225Y72499D02*
X1370975Y72499D01*
X1370975Y73686D02*
X1367225Y73686D01*
X1367225Y74873D02*
X1370975Y74873D01*
X1370975Y76060D02*
X1367225Y76060D01*
X1367225Y77247D02*
X1370975Y77247D01*
X1370975Y78434D02*
X1367225Y78434D01*
X1371175Y49875D02*
X1371175Y40965D01*
X1367425Y40965D01*
X1367425Y49875D01*
X1371175Y49875D01*
X1371175Y42152D02*
X1367425Y42152D01*
X1367425Y43339D02*
X1371175Y43339D01*
X1371175Y44526D02*
X1367425Y44526D01*
X1367425Y45713D02*
X1371175Y45713D01*
X1371175Y46900D02*
X1367425Y46900D01*
X1367425Y48087D02*
X1371175Y48087D01*
X1371175Y49274D02*
X1367425Y49274D01*
X1362975Y49875D02*
X1362975Y40965D01*
X1359225Y40965D01*
X1359225Y49875D01*
X1362975Y49875D01*
X1362975Y42152D02*
X1359225Y42152D01*
X1359225Y43339D02*
X1362975Y43339D01*
X1362975Y44526D02*
X1359225Y44526D01*
X1359225Y45713D02*
X1362975Y45713D01*
X1362975Y46900D02*
X1359225Y46900D01*
X1359225Y48087D02*
X1362975Y48087D01*
X1362975Y49274D02*
X1359225Y49274D01*
X1354975Y49875D02*
X1354975Y40965D01*
X1351225Y40965D01*
X1351225Y49875D01*
X1354975Y49875D01*
X1354975Y42152D02*
X1351225Y42152D01*
X1351225Y43339D02*
X1354975Y43339D01*
X1354975Y44526D02*
X1351225Y44526D01*
X1351225Y45713D02*
X1354975Y45713D01*
X1354975Y46900D02*
X1351225Y46900D01*
X1351225Y48087D02*
X1354975Y48087D01*
X1354975Y49274D02*
X1351225Y49274D01*
X1346975Y49875D02*
X1346975Y40965D01*
X1343225Y40965D01*
X1343225Y49875D01*
X1346975Y49875D01*
X1346975Y42152D02*
X1343225Y42152D01*
X1343225Y43339D02*
X1346975Y43339D01*
X1346975Y44526D02*
X1343225Y44526D01*
X1343225Y45713D02*
X1346975Y45713D01*
X1346975Y46900D02*
X1343225Y46900D01*
X1343225Y48087D02*
X1346975Y48087D01*
X1346975Y49274D02*
X1343225Y49274D01*
D37*
X508580Y78500D03*
X523820Y78500D03*
D38*
X290950Y540200D03*
X305650Y540200D03*
X290950Y521000D03*
X305650Y521000D03*
D39*
X263500Y548000D02*
X255200Y548000D01*
X255200Y551300D01*
X263500Y551300D01*
X263500Y548000D01*
X263500Y549045D02*
X255200Y549045D01*
X255200Y550090D02*
X263500Y550090D01*
X263500Y551135D02*
X255200Y551135D01*
X255200Y535300D02*
X263500Y535300D01*
X255200Y535300D02*
X255200Y538600D01*
X263500Y538600D01*
X263500Y535300D01*
X263500Y536345D02*
X255200Y536345D01*
X255200Y537390D02*
X263500Y537390D01*
X263500Y538435D02*
X255200Y538435D01*
X255200Y522600D02*
X263500Y522600D01*
X255200Y522600D02*
X255200Y525900D01*
X263500Y525900D01*
X263500Y522600D01*
X263500Y523645D02*
X255200Y523645D01*
X255200Y524690D02*
X263500Y524690D01*
X263500Y525735D02*
X255200Y525735D01*
X255200Y509900D02*
X263500Y509900D01*
X255200Y509900D02*
X255200Y513200D01*
X263500Y513200D01*
X263500Y509900D01*
X263500Y510945D02*
X255200Y510945D01*
X255200Y511990D02*
X263500Y511990D01*
X263500Y513035D02*
X255200Y513035D01*
X333100Y509900D02*
X341400Y509900D01*
X333100Y509900D02*
X333100Y513200D01*
X341400Y513200D01*
X341400Y509900D01*
X341400Y510945D02*
X333100Y510945D01*
X333100Y511990D02*
X341400Y511990D01*
X341400Y513035D02*
X333100Y513035D01*
X333100Y522600D02*
X341400Y522600D01*
X333100Y522600D02*
X333100Y525900D01*
X341400Y525900D01*
X341400Y522600D01*
X341400Y523645D02*
X333100Y523645D01*
X333100Y524690D02*
X341400Y524690D01*
X341400Y525735D02*
X333100Y525735D01*
X333100Y535300D02*
X341400Y535300D01*
X333100Y535300D02*
X333100Y538600D01*
X341400Y538600D01*
X341400Y535300D01*
X341400Y536345D02*
X333100Y536345D01*
X333100Y537390D02*
X341400Y537390D01*
X341400Y538435D02*
X333100Y538435D01*
X333100Y548000D02*
X341400Y548000D01*
X333100Y548000D02*
X333100Y551300D01*
X341400Y551300D01*
X341400Y548000D01*
X341400Y549045D02*
X333100Y549045D01*
X333100Y550090D02*
X341400Y550090D01*
X341400Y551135D02*
X333100Y551135D01*
D40*
X-31600Y389900D03*
X-18900Y389900D03*
X-6200Y389900D03*
X6500Y389900D03*
X19200Y389900D03*
X31900Y389900D03*
X44600Y389900D03*
X57300Y389900D03*
X70000Y389900D03*
X82700Y389900D03*
X95400Y389900D03*
X108100Y389900D03*
X120800Y389900D03*
X133500Y389900D03*
X133500Y564900D03*
X120800Y564900D03*
X108100Y564900D03*
X95400Y564900D03*
X82700Y564900D03*
X70000Y564900D03*
X57300Y564900D03*
X44600Y564900D03*
X31900Y564900D03*
X19200Y564900D03*
X6500Y564900D03*
X-6200Y564900D03*
X-18900Y564900D03*
X-31600Y564900D03*
D15*
X25600Y462350D03*
X13100Y449850D03*
X13100Y462350D03*
X13100Y474850D03*
X25600Y449850D03*
X25600Y474850D03*
X38100Y449850D03*
X38100Y462350D03*
X38100Y474850D03*
D41*
X798137Y555537D02*
X798137Y574563D01*
X802563Y574563D01*
X802563Y555537D01*
X798137Y555537D01*
X798137Y556938D02*
X802563Y556938D01*
X802563Y558339D02*
X798137Y558339D01*
X798137Y559740D02*
X802563Y559740D01*
X802563Y561141D02*
X798137Y561141D01*
X798137Y562542D02*
X802563Y562542D01*
X802563Y563943D02*
X798137Y563943D01*
X798137Y565344D02*
X802563Y565344D01*
X802563Y566745D02*
X798137Y566745D01*
X798137Y568146D02*
X802563Y568146D01*
X802563Y569547D02*
X798137Y569547D01*
X798137Y570948D02*
X802563Y570948D01*
X802563Y572349D02*
X798137Y572349D01*
X798137Y573750D02*
X802563Y573750D01*
X785437Y574563D02*
X785437Y555537D01*
X785437Y574563D02*
X789863Y574563D01*
X789863Y555537D01*
X785437Y555537D01*
X785437Y556938D02*
X789863Y556938D01*
X789863Y558339D02*
X785437Y558339D01*
X785437Y559740D02*
X789863Y559740D01*
X789863Y561141D02*
X785437Y561141D01*
X785437Y562542D02*
X789863Y562542D01*
X789863Y563943D02*
X785437Y563943D01*
X785437Y565344D02*
X789863Y565344D01*
X789863Y566745D02*
X785437Y566745D01*
X785437Y568146D02*
X789863Y568146D01*
X789863Y569547D02*
X785437Y569547D01*
X785437Y570948D02*
X789863Y570948D01*
X789863Y572349D02*
X785437Y572349D01*
X785437Y573750D02*
X789863Y573750D01*
X772737Y574563D02*
X772737Y555537D01*
X772737Y574563D02*
X777163Y574563D01*
X777163Y555537D01*
X772737Y555537D01*
X772737Y556938D02*
X777163Y556938D01*
X777163Y558339D02*
X772737Y558339D01*
X772737Y559740D02*
X777163Y559740D01*
X777163Y561141D02*
X772737Y561141D01*
X772737Y562542D02*
X777163Y562542D01*
X777163Y563943D02*
X772737Y563943D01*
X772737Y565344D02*
X777163Y565344D01*
X777163Y566745D02*
X772737Y566745D01*
X772737Y568146D02*
X777163Y568146D01*
X777163Y569547D02*
X772737Y569547D01*
X772737Y570948D02*
X777163Y570948D01*
X777163Y572349D02*
X772737Y572349D01*
X772737Y573750D02*
X777163Y573750D01*
X760037Y574563D02*
X760037Y555537D01*
X760037Y574563D02*
X764463Y574563D01*
X764463Y555537D01*
X760037Y555537D01*
X760037Y556938D02*
X764463Y556938D01*
X764463Y558339D02*
X760037Y558339D01*
X760037Y559740D02*
X764463Y559740D01*
X764463Y561141D02*
X760037Y561141D01*
X760037Y562542D02*
X764463Y562542D01*
X764463Y563943D02*
X760037Y563943D01*
X760037Y565344D02*
X764463Y565344D01*
X764463Y566745D02*
X760037Y566745D01*
X760037Y568146D02*
X764463Y568146D01*
X764463Y569547D02*
X760037Y569547D01*
X760037Y570948D02*
X764463Y570948D01*
X764463Y572349D02*
X760037Y572349D01*
X760037Y573750D02*
X764463Y573750D01*
X747337Y574563D02*
X747337Y555537D01*
X747337Y574563D02*
X751763Y574563D01*
X751763Y555537D01*
X747337Y555537D01*
X747337Y556938D02*
X751763Y556938D01*
X751763Y558339D02*
X747337Y558339D01*
X747337Y559740D02*
X751763Y559740D01*
X751763Y561141D02*
X747337Y561141D01*
X747337Y562542D02*
X751763Y562542D01*
X751763Y563943D02*
X747337Y563943D01*
X747337Y565344D02*
X751763Y565344D01*
X751763Y566745D02*
X747337Y566745D01*
X747337Y568146D02*
X751763Y568146D01*
X751763Y569547D02*
X747337Y569547D01*
X747337Y570948D02*
X751763Y570948D01*
X751763Y572349D02*
X747337Y572349D01*
X747337Y573750D02*
X751763Y573750D01*
X734637Y574563D02*
X734637Y555537D01*
X734637Y574563D02*
X739063Y574563D01*
X739063Y555537D01*
X734637Y555537D01*
X734637Y556938D02*
X739063Y556938D01*
X739063Y558339D02*
X734637Y558339D01*
X734637Y559740D02*
X739063Y559740D01*
X739063Y561141D02*
X734637Y561141D01*
X734637Y562542D02*
X739063Y562542D01*
X739063Y563943D02*
X734637Y563943D01*
X734637Y565344D02*
X739063Y565344D01*
X739063Y566745D02*
X734637Y566745D01*
X734637Y568146D02*
X739063Y568146D01*
X739063Y569547D02*
X734637Y569547D01*
X734637Y570948D02*
X739063Y570948D01*
X739063Y572349D02*
X734637Y572349D01*
X734637Y573750D02*
X739063Y573750D01*
X721937Y574563D02*
X721937Y555537D01*
X721937Y574563D02*
X726363Y574563D01*
X726363Y555537D01*
X721937Y555537D01*
X721937Y556938D02*
X726363Y556938D01*
X726363Y558339D02*
X721937Y558339D01*
X721937Y559740D02*
X726363Y559740D01*
X726363Y561141D02*
X721937Y561141D01*
X721937Y562542D02*
X726363Y562542D01*
X726363Y563943D02*
X721937Y563943D01*
X721937Y565344D02*
X726363Y565344D01*
X726363Y566745D02*
X721937Y566745D01*
X721937Y568146D02*
X726363Y568146D01*
X726363Y569547D02*
X721937Y569547D01*
X721937Y570948D02*
X726363Y570948D01*
X726363Y572349D02*
X721937Y572349D01*
X721937Y573750D02*
X726363Y573750D01*
X709237Y574563D02*
X709237Y555537D01*
X709237Y574563D02*
X713663Y574563D01*
X713663Y555537D01*
X709237Y555537D01*
X709237Y556938D02*
X713663Y556938D01*
X713663Y558339D02*
X709237Y558339D01*
X709237Y559740D02*
X713663Y559740D01*
X713663Y561141D02*
X709237Y561141D01*
X709237Y562542D02*
X713663Y562542D01*
X713663Y563943D02*
X709237Y563943D01*
X709237Y565344D02*
X713663Y565344D01*
X713663Y566745D02*
X709237Y566745D01*
X709237Y568146D02*
X713663Y568146D01*
X713663Y569547D02*
X709237Y569547D01*
X709237Y570948D02*
X713663Y570948D01*
X713663Y572349D02*
X709237Y572349D01*
X709237Y573750D02*
X713663Y573750D01*
X709237Y481463D02*
X709237Y462437D01*
X709237Y481463D02*
X713663Y481463D01*
X713663Y462437D01*
X709237Y462437D01*
X709237Y463838D02*
X713663Y463838D01*
X713663Y465239D02*
X709237Y465239D01*
X709237Y466640D02*
X713663Y466640D01*
X713663Y468041D02*
X709237Y468041D01*
X709237Y469442D02*
X713663Y469442D01*
X713663Y470843D02*
X709237Y470843D01*
X709237Y472244D02*
X713663Y472244D01*
X713663Y473645D02*
X709237Y473645D01*
X709237Y475046D02*
X713663Y475046D01*
X713663Y476447D02*
X709237Y476447D01*
X709237Y477848D02*
X713663Y477848D01*
X713663Y479249D02*
X709237Y479249D01*
X709237Y480650D02*
X713663Y480650D01*
X721937Y481463D02*
X721937Y462437D01*
X721937Y481463D02*
X726363Y481463D01*
X726363Y462437D01*
X721937Y462437D01*
X721937Y463838D02*
X726363Y463838D01*
X726363Y465239D02*
X721937Y465239D01*
X721937Y466640D02*
X726363Y466640D01*
X726363Y468041D02*
X721937Y468041D01*
X721937Y469442D02*
X726363Y469442D01*
X726363Y470843D02*
X721937Y470843D01*
X721937Y472244D02*
X726363Y472244D01*
X726363Y473645D02*
X721937Y473645D01*
X721937Y475046D02*
X726363Y475046D01*
X726363Y476447D02*
X721937Y476447D01*
X721937Y477848D02*
X726363Y477848D01*
X726363Y479249D02*
X721937Y479249D01*
X721937Y480650D02*
X726363Y480650D01*
X734637Y481463D02*
X734637Y462437D01*
X734637Y481463D02*
X739063Y481463D01*
X739063Y462437D01*
X734637Y462437D01*
X734637Y463838D02*
X739063Y463838D01*
X739063Y465239D02*
X734637Y465239D01*
X734637Y466640D02*
X739063Y466640D01*
X739063Y468041D02*
X734637Y468041D01*
X734637Y469442D02*
X739063Y469442D01*
X739063Y470843D02*
X734637Y470843D01*
X734637Y472244D02*
X739063Y472244D01*
X739063Y473645D02*
X734637Y473645D01*
X734637Y475046D02*
X739063Y475046D01*
X739063Y476447D02*
X734637Y476447D01*
X734637Y477848D02*
X739063Y477848D01*
X739063Y479249D02*
X734637Y479249D01*
X734637Y480650D02*
X739063Y480650D01*
X747337Y481463D02*
X747337Y462437D01*
X747337Y481463D02*
X751763Y481463D01*
X751763Y462437D01*
X747337Y462437D01*
X747337Y463838D02*
X751763Y463838D01*
X751763Y465239D02*
X747337Y465239D01*
X747337Y466640D02*
X751763Y466640D01*
X751763Y468041D02*
X747337Y468041D01*
X747337Y469442D02*
X751763Y469442D01*
X751763Y470843D02*
X747337Y470843D01*
X747337Y472244D02*
X751763Y472244D01*
X751763Y473645D02*
X747337Y473645D01*
X747337Y475046D02*
X751763Y475046D01*
X751763Y476447D02*
X747337Y476447D01*
X747337Y477848D02*
X751763Y477848D01*
X751763Y479249D02*
X747337Y479249D01*
X747337Y480650D02*
X751763Y480650D01*
X760037Y481463D02*
X760037Y462437D01*
X760037Y481463D02*
X764463Y481463D01*
X764463Y462437D01*
X760037Y462437D01*
X760037Y463838D02*
X764463Y463838D01*
X764463Y465239D02*
X760037Y465239D01*
X760037Y466640D02*
X764463Y466640D01*
X764463Y468041D02*
X760037Y468041D01*
X760037Y469442D02*
X764463Y469442D01*
X764463Y470843D02*
X760037Y470843D01*
X760037Y472244D02*
X764463Y472244D01*
X764463Y473645D02*
X760037Y473645D01*
X760037Y475046D02*
X764463Y475046D01*
X764463Y476447D02*
X760037Y476447D01*
X760037Y477848D02*
X764463Y477848D01*
X764463Y479249D02*
X760037Y479249D01*
X760037Y480650D02*
X764463Y480650D01*
X772737Y481463D02*
X772737Y462437D01*
X772737Y481463D02*
X777163Y481463D01*
X777163Y462437D01*
X772737Y462437D01*
X772737Y463838D02*
X777163Y463838D01*
X777163Y465239D02*
X772737Y465239D01*
X772737Y466640D02*
X777163Y466640D01*
X777163Y468041D02*
X772737Y468041D01*
X772737Y469442D02*
X777163Y469442D01*
X777163Y470843D02*
X772737Y470843D01*
X772737Y472244D02*
X777163Y472244D01*
X777163Y473645D02*
X772737Y473645D01*
X772737Y475046D02*
X777163Y475046D01*
X777163Y476447D02*
X772737Y476447D01*
X772737Y477848D02*
X777163Y477848D01*
X777163Y479249D02*
X772737Y479249D01*
X772737Y480650D02*
X777163Y480650D01*
X785437Y481463D02*
X785437Y462437D01*
X785437Y481463D02*
X789863Y481463D01*
X789863Y462437D01*
X785437Y462437D01*
X785437Y463838D02*
X789863Y463838D01*
X789863Y465239D02*
X785437Y465239D01*
X785437Y466640D02*
X789863Y466640D01*
X789863Y468041D02*
X785437Y468041D01*
X785437Y469442D02*
X789863Y469442D01*
X789863Y470843D02*
X785437Y470843D01*
X785437Y472244D02*
X789863Y472244D01*
X789863Y473645D02*
X785437Y473645D01*
X785437Y475046D02*
X789863Y475046D01*
X789863Y476447D02*
X785437Y476447D01*
X785437Y477848D02*
X789863Y477848D01*
X789863Y479249D02*
X785437Y479249D01*
X785437Y480650D02*
X789863Y480650D01*
X798137Y481463D02*
X798137Y462437D01*
X798137Y481463D02*
X802563Y481463D01*
X802563Y462437D01*
X798137Y462437D01*
X798137Y463838D02*
X802563Y463838D01*
X802563Y465239D02*
X798137Y465239D01*
X798137Y466640D02*
X802563Y466640D01*
X802563Y468041D02*
X798137Y468041D01*
X798137Y469442D02*
X802563Y469442D01*
X802563Y470843D02*
X798137Y470843D01*
X798137Y472244D02*
X802563Y472244D01*
X802563Y473645D02*
X798137Y473645D01*
X798137Y475046D02*
X802563Y475046D01*
X802563Y476447D02*
X798137Y476447D01*
X798137Y477848D02*
X802563Y477848D01*
X802563Y479249D02*
X798137Y479249D01*
X798137Y480650D02*
X802563Y480650D01*
D42*
X1227900Y428000D03*
D43*
X1221513Y434487D02*
X1214587Y434487D01*
X1214587Y436513D01*
X1221513Y436513D01*
X1221513Y434487D01*
X1221513Y435128D02*
X1214587Y435128D01*
X1214587Y435769D02*
X1221513Y435769D01*
X1221513Y436410D02*
X1214587Y436410D01*
X1214587Y429487D02*
X1221513Y429487D01*
X1214587Y429487D02*
X1214587Y431513D01*
X1221513Y431513D01*
X1221513Y429487D01*
X1221513Y430128D02*
X1214587Y430128D01*
X1214587Y430769D02*
X1221513Y430769D01*
X1221513Y431410D02*
X1214587Y431410D01*
X1214587Y424487D02*
X1221513Y424487D01*
X1214587Y424487D02*
X1214587Y426513D01*
X1221513Y426513D01*
X1221513Y424487D01*
X1221513Y425128D02*
X1214587Y425128D01*
X1214587Y425769D02*
X1221513Y425769D01*
X1221513Y426410D02*
X1214587Y426410D01*
X1214587Y419487D02*
X1221513Y419487D01*
X1214587Y419487D02*
X1214587Y421513D01*
X1221513Y421513D01*
X1221513Y419487D01*
X1221513Y420128D02*
X1214587Y420128D01*
X1214587Y420769D02*
X1221513Y420769D01*
X1221513Y421410D02*
X1214587Y421410D01*
X1234287Y419487D02*
X1241213Y419487D01*
X1234287Y419487D02*
X1234287Y421513D01*
X1241213Y421513D01*
X1241213Y419487D01*
X1241213Y420128D02*
X1234287Y420128D01*
X1234287Y420769D02*
X1241213Y420769D01*
X1241213Y421410D02*
X1234287Y421410D01*
X1234287Y424487D02*
X1241213Y424487D01*
X1234287Y424487D02*
X1234287Y426513D01*
X1241213Y426513D01*
X1241213Y424487D01*
X1241213Y425128D02*
X1234287Y425128D01*
X1234287Y425769D02*
X1241213Y425769D01*
X1241213Y426410D02*
X1234287Y426410D01*
X1234287Y429487D02*
X1241213Y429487D01*
X1234287Y429487D02*
X1234287Y431513D01*
X1241213Y431513D01*
X1241213Y429487D01*
X1241213Y430128D02*
X1234287Y430128D01*
X1234287Y430769D02*
X1241213Y430769D01*
X1241213Y431410D02*
X1234287Y431410D01*
X1234287Y434487D02*
X1241213Y434487D01*
X1234287Y434487D02*
X1234287Y436513D01*
X1241213Y436513D01*
X1241213Y434487D01*
X1241213Y435128D02*
X1234287Y435128D01*
X1234287Y435769D02*
X1241213Y435769D01*
X1241213Y436410D02*
X1234287Y436410D01*
M02*
